<?xml version="1.0" encoding="UTF-8"?>
<svg id="Ebene_1" xmlns="http://www.w3.org/2000/svg" version="1.1" viewBox="0 0 60.3 56.7">
  <!-- Generator: Adobe Illustrator 29.6.0, SVG Export Plug-In . SVG Version: 2.1.1 Build 207)  -->
  <defs>
    <style>
      .st0 {
        fill: #e63027;
      }

      .st1 {
        fill: #fff;
      }
    </style>
  </defs>
  <rect class="st0" width="60.3" height="56.7"/>
  <path class="st1" d="M40.6,41.1c0,2.4,1.9,4.3,4.3,4.3s4.3-1.9,4.3-4.3-1.9-4.3-4.3-4.3-4.3,1.9-4.3,4.3M23.4,17.3h1.7c1,0,2.8,0,3.9,1.1s1.2,1.5.9,3.4c-.3,1.7-1.1,2.7-1.8,3.3-1.5,1.3-3.3,1.5-4.6,1.5h-1.7s1.6-9.3,1.6-9.3ZM17.1,11.3l-5.9,33.4h7.4l2.3-13.2,6.3,13.2h9l-7.4-13.7c1.8-.5,3.6-1.5,4.9-2.6,2.4-2.1,3.3-4.7,3.7-6.8.7-3.7-.4-6.1-1.5-7.5-1.3-1.5-3.5-2.9-7.6-2.9h-11.2Z"/>
</svg>