<?xml version="1.0" encoding="UTF-8"?>
<svg id="Ebene_1" xmlns="http://www.w3.org/2000/svg" version="1.1" viewBox="0 0 297.6 86.2">
  <!-- Generator: Adobe Illustrator 29.6.0, SVG Export Plug-In . SVG Version: 2.1.1 Build 207)  -->
  <defs>
    <style>
      .st0 {
        fill: none;
      }

      .st1 {
        fill: #e63027;
      }

      .st2 {
        fill: #fff;
      }
    </style>
  </defs>
  <rect class="st1" y="0" width="298" height="86.2"/>
  <path class="st2" d="M248.4,56.9c0,2.4,1.9,4.3,4.3,4.3s4.3-1.9,4.3-4.3-1.9-4.3-4.3-4.3c-2.4,0-4.3,1.9-4.3,4.3M223.6,60.5h6.9l2-11.5c.3-1.5.7-3.1,2.1-4.3.6-.6,1.6-1.2,3.1-1.2s2,.5,2.4,1c.9,1.2.6,3,.4,4.5l-2,11.5h6.9l2.5-14.1c.3-1.8.6-4.5-1-6.6-1.5-1.9-3.9-2.3-5.7-2.3s-4.6.5-7.2,3.3l.5-2.7h-6.9l-4,22.4ZM223.2,49.8c.5-2.8.6-6.3-1.4-9.1-2.1-2.9-5.5-3.4-7.9-3.4s-5.7.5-8.7,3.2c-2.6,2.3-4.2,5.6-4.8,8.8-.7,3.7.2,6.7,1.7,8.6,2,2.6,4.7,3.2,7.9,3.2s4.7-.4,7-1.7c1.4-.8,3.6-2.5,5.1-5.6l-6.4-.7c-.8,1.3-1.7,1.8-1.8,1.9-.8.5-1.9.7-2.9.7s-2.4-.2-3.3-1.4c-.7-1-.8-2.6-.6-3.8h15.9l.2-.7ZM208.1,46.3c.4-1,1-1.8,1.6-2.4.8-.7,2-1.5,3.7-1.5s2.4.5,3,1.3c.8,1,.9,2.4.9,2.6h-9.2ZM187,43.6c1.5,0,2.7.5,3.6,1.7.7.9,1.1,2.2.8,4.1-.3,1.9-1.3,3.2-2.3,4-1.3,1.1-2.9,1.7-4.2,1.7s-2.4-.5-3.3-1.6c-.8-1-1.2-2.5-.9-4.1.3-1.8,1.2-3.3,2.4-4.3,1.3-1.1,2.6-1.5,3.9-1.5M202.3,24h-6.9l-2.9,16.7c-1.3-2.5-3.7-3.3-6.1-3.3s-5.7,1.2-7.9,3c-2.4,2.1-4.2,5.1-4.9,8.8-.6,3.5,0,6.7,1.8,9,1.5,2,3.6,3.1,6.8,3.1s6-1.9,7.3-3.5l-.5,2.7h6.9l6.4-36.5ZM155.4,60.5h6.9l1.6-9.1c.3-1.9.9-4.3,2.7-6,1-1,2.2-1.5,3.7-1.5s2.1.3,3,.8l1.6-6.8c-.7-.3-1.3-.4-2.2-.4-1.3,0-2.6.2-3.8,1-1.2.7-2.4,1.9-3.2,3.1l.6-3.5h-6.9l-4,22.4ZM154,49.8c.5-2.8.6-6.3-1.4-9.1-2.1-2.9-5.5-3.4-7.9-3.4s-5.7.5-8.7,3.2c-2.6,2.3-4.2,5.6-4.8,8.8-.7,3.7.2,6.7,1.7,8.6,2,2.6,4.7,3.2,7.9,3.2s4.7-.4,7-1.7c1.4-.8,3.6-2.5,5.1-5.6l-6.4-.7c-.8,1.3-1.7,1.8-1.8,1.9-.8.5-1.9.7-2.9.7s-2.4-.2-3.3-1.4c-.7-1-.8-2.6-.6-3.8h15.9l.2-.7ZM138.9,46.3c.4-1,1-1.8,1.6-2.4.8-.7,2-1.5,3.7-1.5s2.4.5,3,1.3c.8,1,.9,2.4.9,2.6h-9.2ZM105.2,60.5h6.9l2-11.5c.3-1.5.7-3.1,2.1-4.3.6-.6,1.6-1.2,3.1-1.2s2,.5,2.4,1c.9,1.2.6,3,.4,4.5l-2,11.5h6.9l2.5-14.1c.3-1.8.6-4.5-1-6.6-1.5-1.9-3.9-2.3-5.7-2.3s-4.6.5-7.2,3.3l.5-2.7h-6.9l-4,22.4ZM66.9,60.5h6.9l2-11.4c0-.8.6-3.3,2.1-4.6.8-.7,1.6-.9,2.5-.9s1.5,0,2.1.9c.9,1.1.6,2.9.3,4.4l-2.1,11.6h6.9l2-11.1c.3-1.5.7-3.2,1.8-4.4.7-.8,1.8-1.4,2.9-1.4s1.8.5,2.3,1.2c.7,1.2.3,3.2,0,4.4l-2,11.3h6.9l2.5-14.1c.3-1.6.7-4.6-1-6.7-1.1-1.3-3-2.1-5.6-2.1s-3.1.3-4.8,1.3c-1.5.9-2.5,2-3.2,2.9-.3-1.4-1-2.5-2-3.1-1.3-.9-2.9-1-3.8-1-1.6,0-4.3.4-6.5,3.2l.5-2.6h-6.9l-3.9,22.2ZM45.6,38.2l-2.4,13.5c-.4,2.5-.4,4.7,1.2,6.7,2,2.5,5.5,2.9,8.1,2.9s6.2-.4,9.1-2.9c2.5-2.2,3.2-4.6,3.7-7.2l2.3-13h-6.9l-2.2,12.3c-.2,1.1-.6,2.6-1.8,3.6-.7.6-1.8,1.1-3.1,1.1s-2.3-.6-2.7-1.1c-.9-1.1-.7-2.6-.6-3.6l2.2-12.3h-6.9ZM27.6,33.1h1.7c1,0,2.8,0,3.9,1.1.5.5,1.2,1.5.9,3.4-.3,1.7-1.1,2.7-1.8,3.3-1.5,1.3-3.3,1.5-4.6,1.5h-1.7l1.6-9.3ZM21.3,27.1l-5.9,33.4h7.4l2.3-13.2,6.3,13.2h9l-7.4-13.7c1.8-.5,3.6-1.5,4.9-2.6,2.4-2.1,3.3-4.7,3.7-6.8.7-3.7-.4-6.1-1.5-7.5-1.3-1.5-3.5-2.9-7.6-2.9h-11.2Z"/>
  <rect class="st0" x="15.4" y="24" width="241.6" height="50.5"/>
</svg>